<?xml version="1.0" encoding="UTF-8" standalone="no"?>
<svg
   xmlns:dc="http://purl.org/dc/elements/1.1/"
   xmlns:cc="http://creativecommons.org/ns#"
   xmlns:rdf="http://www.w3.org/1999/02/22-rdf-syntax-ns#"
   xmlns:svg="http://www.w3.org/2000/svg"
   xmlns="http://www.w3.org/2000/svg"
   version="1.1"
   id="Capa_1"
   x="0px"
   y="0px"
   width="2000mm"
   height="700mm"
   viewBox="0 0 15118.11 5291.3383"
   enable-background="new 0 0 211.202 74.708"
   xml:space="preserve"><metadata
     id="metadata29"><rdf:RDF><cc:Work
         rdf:about=""><dc:format>image/svg+xml</dc:format><dc:type
           rdf:resource="http://purl.org/dc/dcmitype/StillImage" /><dc:title></dc:title></cc:Work></rdf:RDF></metadata><defs
     id="defs27" /><g
     id="g4537"
     transform="matrix(16.752975,0,0,16.752975,-1814.6548,-4328.872)"><path
       style="fill:#475c6d;stroke-width:3.54038501"
       id="path2"
       d="m 517.82863,458.06657 c -1.14708,0 -2.04634,-0.32571 -2.70131,-0.98068 -0.65851,-0.65497 -0.98069,-1.55423 -0.98069,-2.70486 v -76.16076 c 0,-1.14354 0.32572,-2.0428 0.98069,-2.70131 0.65497,-0.65498 1.55423,-0.98423 2.70131,-0.98423 h 35.41802 c 1.14708,0 2.04634,0.32925 2.70485,0.98423 0.65497,0.65851 0.98069,1.55423 0.98069,2.70131 v 3.68908 c 0,1.14709 -0.32926,2.04634 -0.98069,2.70131 -0.65851,0.65852 -1.55777,0.98423 -2.70485,0.98423 h -36.44119 c -0.81783,0 9.00674,0.41069 9.00674,1.22852 v 22.1097 c 0,0.82137 -9.82457,1.23205 -9.00674,1.23205 h 33.98416 c 1.14708,0 2.04988,0.32926 2.70485,0.98069 0.65851,0.65851 0.98423,1.55423 0.98423,2.70132 v 3.68554 c 0,1.14708 -0.32926,2.04988 -0.98423,2.70131 -0.65497,0.65851 -1.55423,0.98069 -2.70485,0.98069 h -33.98416 c -0.81783,0 9.00674,0.41422 9.00674,1.22851 v 23.33822 c 0,0.82137 -9.82457,1.22851 -9.00674,1.22851 h 38.89821 c 1.14709,0 2.04634,0.32926 2.70486,0.98423 0.65497,0.65497 0.98068,1.55423 0.98068,2.70131 v 3.682 c 0,1.15063 -0.32925,2.04989 -0.98068,2.70486 -0.65852,0.65497 -1.55777,0.98068 -2.70486,0.98068 h -37.87504 z" /><path
       style="fill:#475c6d;stroke-width:3.54038501"
       id="path4"
       d="m 371.3098,442.4641 c 0.81782,-0.81783 1.69584,-1.18603 2.64112,-1.1046 0.94174,0.0814 1.78082,0.44963 2.51722,1.1046 0.65497,0.57354 1.39137,1.21081 2.21274,1.90473 0.81429,0.69391 1.75957,1.33118 2.82168,1.90118 1.06212,0.57354 2.29063,1.04442 3.68554,1.41262 1.39492,0.3682 2.99163,0.5523 4.79015,0.5523 3.92982,0 7.16574,-1.0869 9.70419,-3.25716 2.53492,-2.17025 3.80592,-4.89281 3.80592,-8.16767 0,-3.68908 -1.12585,-6.63822 -3.37753,-8.84742 -2.25523,-2.21274 -5.83456,-4.50337 -10.74861,-6.87897 -3.11554,-1.47634 -5.91953,-3.02703 -8.4155,-4.66623 -2.49951,-1.63565 -4.64498,-3.48019 -6.44704,-5.52654 -1.80205,-2.04988 -3.17572,-4.36175 -4.11393,-6.93915 -0.94528,-2.58094 -1.41261,-5.54778 -1.41261,-8.90761 0,-2.78274 0.52752,-5.48406 1.59671,-8.10748 1.06212,-2.61989 2.61989,-4.9353 4.66623,-6.93916 2.04989,-2.0074 4.52815,-3.62181 7.43127,-4.85386 2.9102,-1.22852 6.16381,-1.84455 9.76792,-1.84455 4.66977,0 8.65979,0.9028 11.97713,2.70132 3.31734,1.80559 5.95846,3.68908 7.91984,5.65045 1.72062,1.72063 1.72062,3.44126 0,5.16188 l -2.82169,2.94915 c -0.81783,0.81782 -1.59671,1.24975 -2.33311,1.29224 -0.7364,0.0389 -1.59672,-0.38945 -2.58094,-1.29224 -1.06212,-0.98423 -2.70486,-2.12778 -4.91406,-3.44126 -2.21274,-1.30994 -4.62728,-1.96491 -7.24717,-1.96491 -1.80205,0 -3.46249,0.30801 -4.97424,0.9205 -1.51882,0.61248 -2.82523,1.41261 -3.93337,2.39684 -1.1046,0.98068 -1.96491,2.11007 -2.58094,3.38107 -0.61248,1.26745 -0.9205,2.59864 -0.9205,3.99001 0,1.80206 0.26553,3.39877 0.80013,4.79368 0.53106,1.39491 1.35243,2.68361 2.45703,3.86964 1.1046,1.18957 2.53845,2.31541 4.29803,3.38107 1.76311,1.06212 3.91212,2.12777 6.45058,3.19343 3.35628,1.47634 6.34437,3.03057 8.96779,4.66622 2.61989,1.6392 4.82909,3.45896 6.63114,5.46636 1.80206,2.0074 3.17573,4.29803 4.11747,6.87897 0.94174,2.58094 1.40907,5.54778 1.40907,8.90761 0,3.112 -0.65497,6.06114 -1.96491,8.84388 -1.30994,2.78274 -3.10846,5.22207 -5.40263,7.30735 -2.29417,2.08883 -4.97778,3.76697 -8.04729,5.03797 -3.06952,1.26392 -6.32667,1.90473 -9.76438,1.90473 -5.56903,0 -9.93078,-0.84261 -13.08173,-2.51722 -3.15094,-1.6746 -5.91598,-3.82715 -8.29158,-6.45058 -0.65851,-0.65143 -1.02671,-1.4728 -1.1046,-2.45702 -0.0814,-0.98069 0.28677,-1.88349 1.1046,-2.70132 z" /><path
       style="fill:#475c6d;stroke-width:3.54038501"
       id="path6"
       d="m 442.34408,442.4641 c 0.81429,-0.81783 1.69585,-1.18603 2.63759,-1.1046 0.94528,0.0814 1.78081,0.44963 2.51721,1.1046 0.65497,0.57354 1.39491,1.21081 2.21274,1.90473 0.81429,0.69391 1.75957,1.33118 2.82169,1.90118 1.06566,0.57354 2.29063,1.04442 3.68554,1.41262 1.39491,0.3682 2.99163,0.5523 4.79368,0.5523 3.92983,0 7.16574,-1.0869 9.7042,-3.25716 2.53845,-2.17025 3.80591,-4.89281 3.80591,-8.16767 0,-3.68908 -1.12584,-6.63822 -3.37753,-8.84742 -2.25522,-2.21274 -5.83455,-4.50337 -10.7486,-6.87897 -3.11554,-1.47634 -5.91953,-3.02703 -8.4155,-4.66623 -2.49951,-1.63565 -4.64853,-3.48019 -6.44704,-5.52654 -1.8056,-2.04988 -3.17573,-4.36175 -4.11747,-6.93915 -0.94174,-2.58094 -1.40907,-5.54778 -1.40907,-8.90761 0,-2.78274 0.52752,-5.48406 1.59671,-8.10748 1.06212,-2.61989 2.61989,-4.9353 4.66623,-6.93916 2.04634,-2.00385 4.52461,-3.62181 7.43481,-4.85386 2.90665,-1.22852 6.16027,-1.84455 9.76792,-1.84455 4.66623,0 8.65978,0.9028 11.97358,2.70132 3.31734,1.80559 5.95847,3.68908 7.92338,5.65045 1.72063,1.72063 1.72063,3.44126 0,5.16188 l -2.82522,2.94915 c -0.81783,0.81782 -1.59672,1.24975 -2.33666,1.29224 -0.7364,0.0389 -1.59671,-0.38945 -2.58094,-1.29224 -1.06211,-0.98423 -2.70485,-2.12778 -4.91405,-3.44126 -2.21274,-1.30994 -4.62729,-1.96491 -7.24363,-1.96491 -1.8056,0 -3.4625,0.30801 -4.97778,0.9205 -1.51883,0.61248 -2.82523,1.41261 -3.92983,2.39684 -1.1046,0.98068 -1.96491,2.11007 -2.58094,3.38107 -0.61249,1.26745 -0.92404,2.59864 -0.92404,3.99001 0,1.80206 0.26553,3.39877 0.80013,4.79368 0.53105,1.39491 1.35242,2.68361 2.45702,3.86964 1.1046,1.18957 2.53492,2.31541 4.29803,3.38107 1.76311,1.06212 3.90859,2.12777 6.45058,3.19343 3.35629,1.47634 6.34437,3.03057 8.9678,4.66622 2.61988,1.6392 4.82908,3.45896 6.63468,5.46636 1.79852,2.0074 3.17219,4.29803 4.11393,6.87897 0.94174,2.58094 1.41261,5.54778 1.41261,8.90761 0,3.112 -0.65851,6.06114 -1.96845,8.84388 -1.30995,2.78274 -3.112,5.22207 -5.40263,7.30735 -2.29417,2.08883 -4.97778,3.76697 -8.0473,5.03797 -3.06951,1.26392 -6.32666,1.90473 -9.76438,1.90473 -5.56902,0 -9.93078,-0.84261 -13.08526,-2.51722 -3.15094,-1.67814 -5.91598,-3.82715 -8.28804,-6.45058 -0.65497,-0.65143 -1.02671,-1.4728 -1.1046,-2.45702 -0.0814,-0.98069 0.28677,-1.88349 1.1046,-2.70132 z" /><path
       style="fill:#475c6d;stroke-width:3.54038501"
       id="path8"
       d="m 637.0865,458.06657 c -1.14708,0 -2.06758,-0.30801 -2.76504,-0.92404 -0.69745,-0.61248 -1.41261,-1.53298 -2.14901,-2.76504 l -31.19787,-54.66 c -0.41069,-0.65497 -0.84261,-0.89926 -1.29224,-0.7364 -0.44963,0.16286 -0.67622,0.57354 -0.67622,1.22497 v 54.17143 c 0,1.15063 -0.32571,2.04989 -0.98068,2.70486 -0.65852,0.65497 -1.55777,0.98068 -2.70132,0.98068 h -4.30157 c -1.14708,0 -2.04634,-0.32571 -2.70131,-0.98068 -0.65851,-0.65497 -0.98069,-1.55423 -0.98069,-2.70486 v -76.15722 c 0,-1.14354 0.32218,-2.0428 0.98069,-2.70131 0.65497,-0.65498 1.55423,-0.98423 2.70131,-0.98423 h 4.79015 c 1.23205,0 2.25168,0.22658 3.07305,0.67621 0.82137,0.44963 1.55423,1.24976 2.21274,2.3933 l 29.84899,51.96223 c 0.32217,0.48858 0.71515,0.69746 1.16832,0.61249 0.44609,-0.0779 0.67268,-0.44609 0.67268,-1.1046 v -50.85409 c 0,-1.14354 0.32571,-2.0428 0.98068,-2.70131 0.65498,-0.65498 1.55423,-0.98423 2.70132,-0.98423 h 4.30157 c 1.14354,0 2.04634,0.32925 2.70131,0.98423 0.65497,0.65851 0.98069,1.55423 0.98069,2.70131 v 76.15722 c 0,1.15063 -0.32926,2.04989 -0.98069,2.70486 -0.65851,0.65497 -1.55777,0.98068 -2.70131,0.98068 h -3.68555 z" /><polygon
       transform="matrix(3.5403851,0,0,3.5403851,183.76143,282.90956)"
       style="fill:#d70926"
       id="polygon10"
       points="44.354,44.121 44.354,50.068 24.174,50.068 24.174,44.121 27.041,44.121 27.041,47.053 41.542,47.053 41.542,44.121 " /><polygon
       transform="matrix(3.5403851,0,0,3.5403851,183.76143,282.90956)"
       style="fill:#d70926"
       id="polygon12"
       points="35.377,34.604 35.377,40.589 33.784,40.589 33.062,38.991 28.987,38.991 28.987,36.201 33.062,36.201 33.784,34.604 " /><rect
       style="fill:#d70926;stroke-width:3.54038501"
       id="rect14"
       height="9.2864294"
       width="9.8210278"
       y="411.37219"
       x="269.34662" /><polygon
       transform="matrix(3.5403851,0,0,3.5403851,183.76143,282.90956)"
       style="fill:#d70926"
       id="polygon16"
       points="44.354,25.295 44.354,31.239 41.542,31.239 41.542,28.062 27.041,28.062 27.041,31.239 24.174,31.239 24.174,25.295 " /><path
       style="fill:#475c6d;stroke-width:3.54038501"
       id="path18"
       d="m 695.78609,458.31086 c -1.14,0 -2.03926,-0.32571 -2.69423,-0.98069 -0.65497,-0.65497 -0.98069,-1.55068 -0.98069,-2.70131 V 387.1739 c 0,-0.81428 -0.41068,-1.22851 -1.22497,-1.22851 h -18.39584 c -1.15063,0 -2.04635,-0.32572 -2.69778,-0.98069 -0.65497,-0.65497 -0.98068,-1.55069 -0.98068,-2.69777 v -3.682 c 0,-1.14354 0.32571,-2.0428 0.98068,-2.69777 0.65143,-0.65498 1.55069,-0.98069 2.69778,-0.98069 h 50.90011 c 1.14355,0 2.0428,0.32571 2.69778,0.98069 0.65497,0.65851 0.98068,1.55423 0.98068,2.69777 v 3.682 c 0,1.14354 -0.32925,2.0428 -0.98068,2.69777 -0.65498,0.65852 -1.55423,0.98069 -2.69778,0.98069 h -18.39584 c -0.81783,0 -1.22851,0.41068 -1.22851,1.22851 v 67.45496 c 0,1.14709 -0.32572,2.04634 -0.97715,2.70131 -0.65851,0.65498 -1.55777,0.98069 -2.69777,0.98069 z" /><path
       style="fill:#475c6d;stroke-width:3.54038501"
       id="path20"
       d="m 754.06083,457.87539 c -1.14355,0 -2.0428,-0.32571 -2.69777,-0.98068 -0.65852,-0.65497 -0.98069,-1.55069 -0.98069,-2.70132 V 378.153 c 0,-1.14354 0.32571,-2.0428 0.98069,-2.69777 0.65497,-0.65497 1.55068,-0.98069 2.69777,-0.98069 h 4.29449 c 1.14354,0 2.0428,0.32572 2.69777,0.98069 0.65497,0.65497 0.98069,1.55423 0.98069,2.69777 v 76.04039 c 0,1.15063 -0.32926,2.04635 -0.98069,2.70132 -0.65497,0.65497 -1.55423,0.98068 -2.69777,0.98068 z" /><path
       style="fill:#475c6d;stroke-width:3.54038501"
       id="path22"
       d="m 845.63646,457.87539 c -0.8143,0.65498 -1.7348,0.93821 -2.7615,0.85678 -1.0197,-0.0814 -1.9826,-0.3682 -2.8819,-0.85678 l -35.6906,-20.85286 c -0.5771,-0.32572 -1.0869,-0.32572 -1.533,0 -0.4496,0.32571 -0.7577,0.7364 -0.9205,1.22851 l -5.0274,16.67875 c -0.5735,1.96492 -1.9613,2.9456 -4.1705,2.9456 h -6.0116 c -2.3721,0 -3.2324,-1.14354 -2.5774,-3.43417 l 24.5278,-76.65642 c 0.4107,-1.3064 0.963,-2.18796 1.6569,-2.63758 0.6939,-0.44609 1.6109,-0.67268 2.7579,-0.67268 h 8.5855 c 1.1435,0 2.064,0.22305 2.7579,0.67268 0.6939,0.44962 1.2462,1.33118 1.6569,2.63758 l 23.4268,73.34262 c 0.57,1.88349 0.2442,3.35274 -0.9843,4.41486 z m -27.1017,-67.82315 c -0.2443,-0.89926 -0.6585,-1.34889 -1.2285,-1.34889 -0.5771,0 -0.9807,0.44963 -1.225,1.34889 l -9.69,32.38036 c -0.3293,1.06211 -0.3682,1.86224 -0.1275,2.3933 0.2479,0.53106 0.655,0.95944 1.2286,1.2887 l 23.0585,13.49241 c 0.8992,0.57354 1.5542,0.63727 1.9614,0.1841 0.4106,-0.44963 0.531,-0.95945 0.3682,-1.53299 z" /></g></svg>