<?xml version="1.0" encoding="utf-8"?>
<!-- Generator: Adobe Illustrator 16.0.0, SVG Export Plug-In . SVG Version: 6.00 Build 0)  -->
<!DOCTYPE svg PUBLIC "-//W3C//DTD SVG 1.1//EN" "http://www.w3.org/Graphics/SVG/1.1/DTD/svg11.dtd">
<svg version="1.1" id="Capa_1" xmlns="http://www.w3.org/2000/svg" xmlns:xlink="http://www.w3.org/1999/xlink" x="0px" y="0px"
	 width="211.202px" height="74.708px" viewBox="0 0 211.202 74.708" enable-background="new 0 0 211.202 74.708"
	 xml:space="preserve">
<path fill="#475C6D" d="M94.359,49.474c-0.324,0-0.578-0.092-0.763-0.277c-0.186-0.185-0.277-0.439-0.277-0.764V26.921
	c0-0.323,0.092-0.577,0.277-0.763c0.185-0.185,0.439-0.278,0.763-0.278h10.004c0.324,0,0.578,0.093,0.764,0.278
	c0.185,0.186,0.277,0.439,0.277,0.763v1.042c0,0.324-0.093,0.578-0.277,0.763c-0.186,0.186-0.44,0.278-0.764,0.278H94.07
	c-0.231,0,2.544,0.116,2.544,0.347v6.245c0,0.232-2.775,0.348-2.544,0.348h9.599c0.324,0,0.579,0.093,0.764,0.277
	c0.186,0.186,0.278,0.439,0.278,0.763v1.041c0,0.324-0.093,0.579-0.278,0.763c-0.185,0.186-0.439,0.277-0.764,0.277H94.07
	c-0.231,0,2.544,0.117,2.544,0.347v6.592c0,0.232-2.775,0.347-2.544,0.347h10.987c0.324,0,0.578,0.093,0.764,0.278
	c0.185,0.185,0.277,0.439,0.277,0.763v1.04c0,0.325-0.093,0.579-0.277,0.764c-0.186,0.185-0.44,0.277-0.764,0.277H94.359z"/>
<path fill="#475C6D" d="M52.974,45.067c0.231-0.231,0.479-0.335,0.746-0.312c0.266,0.023,0.503,0.127,0.711,0.312
	c0.185,0.162,0.393,0.342,0.625,0.538c0.23,0.196,0.497,0.376,0.797,0.537c0.3,0.162,0.647,0.295,1.041,0.399
	c0.394,0.104,0.845,0.156,1.353,0.156c1.11,0,2.024-0.307,2.741-0.92c0.716-0.613,1.075-1.382,1.075-2.307
	c0-1.042-0.318-1.875-0.954-2.499c-0.637-0.625-1.648-1.272-3.036-1.943c-0.88-0.417-1.672-0.855-2.377-1.318
	c-0.706-0.462-1.312-0.983-1.821-1.561c-0.509-0.579-0.897-1.232-1.162-1.96c-0.267-0.729-0.399-1.567-0.399-2.516
	c0-0.786,0.149-1.549,0.451-2.29c0.3-0.74,0.74-1.394,1.318-1.96c0.579-0.567,1.279-1.023,2.099-1.371
	c0.822-0.347,1.741-0.521,2.759-0.521c1.319,0,2.446,0.255,3.383,0.763c0.937,0.51,1.683,1.042,2.237,1.596
	c0.486,0.486,0.486,0.972,0,1.458l-0.797,0.833c-0.231,0.231-0.451,0.353-0.659,0.365c-0.208,0.011-0.451-0.11-0.729-0.365
	c-0.3-0.278-0.764-0.601-1.388-0.972c-0.625-0.37-1.307-0.555-2.047-0.555c-0.509,0-0.978,0.087-1.405,0.26
	c-0.429,0.173-0.798,0.399-1.111,0.677c-0.312,0.277-0.555,0.596-0.729,0.955c-0.173,0.358-0.26,0.734-0.26,1.127
	c0,0.509,0.075,0.96,0.226,1.354c0.15,0.394,0.382,0.758,0.694,1.093c0.312,0.336,0.717,0.654,1.214,0.955
	c0.498,0.3,1.105,0.601,1.822,0.902c0.948,0.417,1.792,0.856,2.533,1.318c0.74,0.463,1.364,0.977,1.873,1.544
	s0.897,1.214,1.163,1.943s0.398,1.567,0.398,2.516c0,0.879-0.185,1.712-0.555,2.498c-0.37,0.786-0.878,1.475-1.526,2.064
	c-0.648,0.59-1.406,1.064-2.273,1.423c-0.867,0.357-1.787,0.538-2.758,0.538c-1.573,0-2.805-0.238-3.695-0.711
	s-1.671-1.081-2.342-1.822c-0.186-0.184-0.29-0.416-0.312-0.694c-0.023-0.277,0.081-0.532,0.312-0.763L52.974,45.067z"/>
<path fill="#475C6D" d="M73.038,45.067c0.23-0.231,0.479-0.335,0.745-0.312c0.267,0.023,0.503,0.127,0.711,0.312
	c0.185,0.162,0.394,0.342,0.625,0.538c0.23,0.196,0.497,0.376,0.797,0.537c0.301,0.162,0.647,0.295,1.041,0.399
	c0.394,0.104,0.845,0.156,1.354,0.156c1.11,0,2.024-0.307,2.741-0.92c0.717-0.613,1.075-1.382,1.075-2.307
	c0-1.042-0.318-1.875-0.954-2.499c-0.637-0.625-1.648-1.272-3.036-1.943c-0.88-0.417-1.672-0.855-2.377-1.318
	c-0.706-0.462-1.313-0.983-1.821-1.561c-0.51-0.579-0.897-1.232-1.163-1.96c-0.266-0.729-0.398-1.567-0.398-2.516
	c0-0.786,0.149-1.549,0.451-2.29c0.3-0.74,0.74-1.394,1.318-1.96s1.278-1.023,2.1-1.371c0.821-0.347,1.74-0.521,2.759-0.521
	c1.318,0,2.446,0.255,3.382,0.763c0.937,0.51,1.683,1.042,2.238,1.596c0.486,0.486,0.486,0.972,0,1.458l-0.798,0.833
	c-0.231,0.231-0.451,0.353-0.66,0.365c-0.208,0.011-0.451-0.11-0.729-0.365c-0.3-0.278-0.764-0.601-1.388-0.972
	c-0.625-0.37-1.307-0.555-2.046-0.555c-0.51,0-0.978,0.087-1.406,0.26c-0.429,0.173-0.798,0.399-1.11,0.677
	c-0.312,0.277-0.555,0.596-0.729,0.955c-0.173,0.358-0.261,0.734-0.261,1.127c0,0.509,0.075,0.96,0.226,1.354
	c0.15,0.394,0.382,0.758,0.694,1.093c0.312,0.336,0.716,0.654,1.214,0.955c0.498,0.3,1.104,0.601,1.822,0.902
	c0.948,0.417,1.792,0.856,2.533,1.318c0.74,0.463,1.364,0.977,1.874,1.544c0.508,0.567,0.896,1.214,1.162,1.943
	c0.266,0.729,0.399,1.567,0.399,2.516c0,0.879-0.186,1.712-0.556,2.498c-0.37,0.786-0.879,1.475-1.526,2.064
	c-0.648,0.59-1.406,1.064-2.273,1.423c-0.867,0.357-1.787,0.538-2.758,0.538c-1.573,0-2.805-0.238-3.696-0.711
	c-0.89-0.474-1.671-1.081-2.341-1.822c-0.185-0.184-0.29-0.416-0.312-0.694c-0.023-0.277,0.081-0.532,0.312-0.763L73.038,45.067z"/>
<path fill="#475C6D" d="M128.044,49.474c-0.324,0-0.584-0.087-0.781-0.261c-0.197-0.173-0.399-0.433-0.607-0.781l-8.812-15.439
	c-0.116-0.185-0.238-0.254-0.365-0.208s-0.191,0.162-0.191,0.346v15.301c0,0.325-0.092,0.579-0.277,0.764
	c-0.186,0.185-0.44,0.277-0.763,0.277h-1.215c-0.324,0-0.578-0.092-0.763-0.277c-0.186-0.185-0.277-0.439-0.277-0.764V26.921
	c0-0.323,0.091-0.577,0.277-0.763c0.185-0.185,0.439-0.278,0.763-0.278h1.353c0.348,0,0.636,0.064,0.868,0.191
	s0.439,0.353,0.625,0.676l8.431,14.677c0.091,0.138,0.202,0.197,0.33,0.173c0.126-0.022,0.19-0.126,0.19-0.312V26.921
	c0-0.323,0.092-0.577,0.277-0.763c0.185-0.185,0.439-0.278,0.763-0.278h1.215c0.323,0,0.578,0.093,0.763,0.278
	c0.185,0.186,0.277,0.439,0.277,0.763v21.511c0,0.325-0.093,0.579-0.277,0.764c-0.186,0.185-0.44,0.277-0.763,0.277H128.044z"/>
<polygon fill="#D70926" points="24.174,50.068 24.174,44.121 27.041,44.121 27.041,47.053 41.542,47.053 41.542,44.121 
	44.354,44.121 44.354,50.068 "/>
<polygon fill="#D70926" points="33.784,40.589 33.062,38.991 28.987,38.991 28.987,36.201 33.062,36.201 33.784,34.604 
	35.377,34.604 35.377,40.589 "/>
<rect x="24.174" y="36.285" fill="#D70926" width="2.774" height="2.623"/>
<polygon fill="#D70926" points="41.542,31.239 41.542,28.062 27.041,28.062 27.041,31.239 24.174,31.239 24.174,25.295 
	44.354,25.295 44.354,31.239 "/>
<path fill="#475C6D" d="M144.624,49.543c-0.322,0-0.576-0.092-0.761-0.277c-0.185-0.185-0.277-0.438-0.277-0.763V29.45
	c0-0.23-0.116-0.347-0.346-0.347h-5.196c-0.325,0-0.578-0.092-0.762-0.277c-0.185-0.185-0.277-0.438-0.277-0.762v-1.04
	c0-0.323,0.092-0.577,0.277-0.762c0.184-0.185,0.438-0.277,0.762-0.277h14.377c0.323,0,0.577,0.092,0.762,0.277
	c0.185,0.186,0.277,0.439,0.277,0.762v1.04c0,0.323-0.093,0.577-0.277,0.762c-0.185,0.186-0.439,0.277-0.762,0.277h-5.196
	c-0.231,0-0.347,0.116-0.347,0.347v19.053c0,0.324-0.092,0.578-0.276,0.763c-0.186,0.185-0.44,0.277-0.762,0.277H144.624z"/>
<path fill="#475C6D" d="M161.084,49.42c-0.323,0-0.577-0.092-0.762-0.277c-0.186-0.185-0.277-0.438-0.277-0.763V26.902
	c0-0.323,0.092-0.577,0.277-0.762c0.185-0.185,0.438-0.277,0.762-0.277h1.213c0.323,0,0.577,0.092,0.762,0.277
	c0.185,0.185,0.277,0.439,0.277,0.762V48.38c0,0.325-0.093,0.578-0.277,0.763c-0.185,0.185-0.439,0.277-0.762,0.277H161.084z"/>
<path fill="#475C6D" d="M186.95,49.42c-0.23,0.185-0.49,0.265-0.78,0.242c-0.288-0.023-0.56-0.104-0.814-0.242l-10.081-5.89
	c-0.163-0.092-0.307-0.092-0.433,0c-0.127,0.092-0.214,0.208-0.26,0.347l-1.42,4.711c-0.162,0.555-0.554,0.832-1.178,0.832h-1.698
	c-0.67,0-0.913-0.323-0.728-0.97l6.928-21.652c0.116-0.369,0.272-0.618,0.468-0.745c0.196-0.126,0.455-0.19,0.779-0.19h2.425
	c0.323,0,0.583,0.063,0.779,0.19c0.196,0.127,0.352,0.376,0.468,0.745l6.617,20.716c0.161,0.532,0.069,0.947-0.278,1.247
	L186.95,49.42z M179.295,30.263c-0.069-0.254-0.186-0.381-0.347-0.381c-0.163,0-0.277,0.127-0.346,0.381l-2.737,9.146
	c-0.093,0.3-0.104,0.526-0.036,0.676c0.07,0.15,0.185,0.271,0.347,0.364l6.513,3.811c0.254,0.162,0.439,0.18,0.554,0.052
	c0.116-0.127,0.15-0.271,0.104-0.433L179.295,30.263z"/>
</svg>
