<?xml version="1.0" encoding="utf-8"?>
<!-- Generator: Adobe Illustrator 16.0.0, SVG Export Plug-In . SVG Version: 6.00 Build 0)  -->
<!DOCTYPE svg PUBLIC "-//W3C//DTD SVG 1.1//EN" "http://www.w3.org/Graphics/SVG/1.1/DTD/svg11.dtd">
<svg version="1.1" id="Capa_1" xmlns="http://www.w3.org/2000/svg" xmlns:xlink="http://www.w3.org/1999/xlink" x="0px" y="0px"
	 width="211.202px" height="74.707px" viewBox="0 0 211.202 74.707" enable-background="new 0 0 211.202 74.707"
	 xml:space="preserve">
<path fill="#ededed" d="M94.359,49.676c-0.324,0-0.578-0.093-0.763-0.277c-0.186-0.186-0.277-0.439-0.277-0.765V27.123
	c0-0.324,0.092-0.578,0.277-0.764c0.185-0.185,0.439-0.277,0.763-0.277h10.004c0.324,0,0.578,0.093,0.764,0.277
	c0.185,0.186,0.277,0.439,0.277,0.764v1.041c0,0.324-0.093,0.578-0.277,0.763c-0.186,0.187-0.44,0.278-0.764,0.278H94.07
	c-0.231,0,2.544,0.115,2.544,0.347v6.245c0,0.231-2.775,0.348-2.544,0.348h9.599c0.324,0,0.579,0.092,0.764,0.277
	c0.186,0.186,0.278,0.439,0.278,0.763v1.041c0,0.324-0.093,0.579-0.278,0.763c-0.185,0.186-0.439,0.277-0.764,0.277H94.07
	c-0.231,0,2.544,0.117,2.544,0.348v6.592c0,0.232-2.775,0.348-2.544,0.348h10.987c0.324,0,0.578,0.093,0.764,0.277
	c0.185,0.186,0.277,0.439,0.277,0.764v1.04c0,0.325-0.093,0.579-0.277,0.765c-0.186,0.185-0.44,0.277-0.764,0.277H94.359z"/>
<path fill="#ededed" d="M52.974,45.27c0.231-0.231,0.479-0.336,0.746-0.312c0.266,0.023,0.503,0.127,0.711,0.312
	c0.185,0.161,0.393,0.342,0.625,0.537c0.23,0.197,0.497,0.377,0.797,0.537c0.3,0.162,0.647,0.295,1.041,0.4
	c0.394,0.104,0.845,0.156,1.353,0.156c1.11,0,2.024-0.307,2.741-0.92c0.716-0.613,1.075-1.383,1.075-2.307
	c0-1.042-0.318-1.875-0.954-2.499c-0.637-0.624-1.648-1.272-3.036-1.943c-0.88-0.417-1.672-0.855-2.377-1.318
	c-0.706-0.462-1.312-0.983-1.821-1.561c-0.509-0.579-0.897-1.231-1.162-1.96c-0.267-0.729-0.399-1.567-0.399-2.517
	c0-0.786,0.149-1.55,0.451-2.29c0.3-0.739,0.74-1.393,1.318-1.96c0.579-0.567,1.279-1.023,2.099-1.37
	c0.822-0.348,1.741-0.521,2.759-0.521c1.319,0,2.446,0.256,3.383,0.764c0.937,0.51,1.683,1.041,2.237,1.596
	c0.486,0.486,0.486,0.973,0,1.458l-0.797,0.833c-0.231,0.23-0.451,0.352-0.659,0.364c-0.208,0.011-0.451-0.11-0.729-0.364
	c-0.3-0.278-0.764-0.602-1.388-0.973c-0.625-0.369-1.307-0.555-2.047-0.555c-0.509,0-0.978,0.088-1.405,0.26
	c-0.429,0.174-0.798,0.4-1.111,0.678c-0.312,0.277-0.555,0.596-0.729,0.954c-0.173,0.358-0.26,0.733-0.26,1.127
	c0,0.509,0.075,0.96,0.226,1.354c0.15,0.394,0.382,0.758,0.694,1.093c0.312,0.336,0.717,0.654,1.214,0.955
	c0.498,0.3,1.105,0.601,1.822,0.901c0.948,0.417,1.792,0.856,2.533,1.318c0.74,0.464,1.364,0.978,1.873,1.544
	s0.897,1.214,1.163,1.943c0.266,0.729,0.398,1.566,0.398,2.516c0,0.879-0.185,1.711-0.555,2.498
	c-0.37,0.785-0.878,1.475-1.526,2.063c-0.648,0.59-1.406,1.064-2.273,1.423c-0.867,0.357-1.787,0.538-2.758,0.538
	c-1.573,0-2.805-0.237-3.695-0.712c-0.891-0.473-1.671-1.08-2.342-1.821c-0.186-0.185-0.29-0.416-0.312-0.694
	c-0.023-0.277,0.081-0.531,0.312-0.763L52.974,45.27z"/>
<path fill="#ededed" d="M73.038,45.27c0.23-0.231,0.479-0.336,0.745-0.312c0.267,0.023,0.503,0.127,0.711,0.312
	c0.185,0.161,0.394,0.342,0.625,0.537c0.23,0.197,0.497,0.377,0.797,0.537c0.301,0.162,0.647,0.295,1.041,0.4
	c0.394,0.104,0.845,0.156,1.354,0.156c1.11,0,2.024-0.307,2.741-0.92s1.075-1.383,1.075-2.307c0-1.042-0.318-1.875-0.954-2.499
	c-0.637-0.624-1.648-1.272-3.036-1.943c-0.88-0.417-1.672-0.855-2.377-1.318c-0.706-0.462-1.313-0.983-1.821-1.561
	c-0.51-0.579-0.897-1.231-1.163-1.96c-0.266-0.729-0.398-1.567-0.398-2.517c0-0.786,0.149-1.55,0.451-2.29
	c0.3-0.739,0.74-1.393,1.318-1.96s1.278-1.023,2.1-1.37c0.821-0.348,1.74-0.521,2.759-0.521c1.318,0,2.446,0.256,3.382,0.764
	c0.937,0.51,1.683,1.041,2.238,1.596c0.486,0.486,0.486,0.973,0,1.458l-0.798,0.833c-0.231,0.23-0.451,0.352-0.66,0.364
	c-0.208,0.011-0.451-0.11-0.729-0.364c-0.3-0.278-0.764-0.602-1.388-0.973c-0.625-0.369-1.307-0.555-2.046-0.555
	c-0.51,0-0.978,0.088-1.406,0.26c-0.429,0.174-0.798,0.4-1.11,0.678c-0.312,0.277-0.555,0.596-0.729,0.954
	c-0.173,0.358-0.261,0.733-0.261,1.127c0,0.509,0.075,0.96,0.226,1.354c0.15,0.394,0.382,0.758,0.694,1.093
	c0.312,0.336,0.716,0.654,1.214,0.955c0.498,0.3,1.104,0.601,1.822,0.901c0.948,0.417,1.792,0.856,2.533,1.318
	c0.74,0.464,1.364,0.978,1.874,1.544c0.508,0.566,0.896,1.214,1.162,1.943c0.266,0.729,0.399,1.566,0.399,2.516
	c0,0.879-0.186,1.711-0.556,2.498c-0.37,0.785-0.879,1.475-1.526,2.063c-0.648,0.59-1.406,1.064-2.273,1.423
	c-0.867,0.357-1.787,0.538-2.758,0.538c-1.573,0-2.805-0.237-3.696-0.712c-0.89-0.473-1.671-1.08-2.341-1.821
	c-0.185-0.185-0.29-0.416-0.312-0.694c-0.023-0.277,0.081-0.531,0.312-0.763L73.038,45.27z"/>
<path fill="#ededed" d="M128.044,49.676c-0.324,0-0.584-0.088-0.781-0.262c-0.197-0.172-0.399-0.433-0.607-0.78l-8.812-15.438
	c-0.116-0.186-0.238-0.255-0.365-0.209c-0.127,0.047-0.191,0.162-0.191,0.347v15.301c0,0.325-0.092,0.579-0.277,0.765
	c-0.186,0.185-0.44,0.277-0.763,0.277h-1.215c-0.324,0-0.578-0.093-0.763-0.277c-0.186-0.186-0.277-0.439-0.277-0.765V27.123
	c0-0.324,0.091-0.578,0.277-0.764c0.185-0.185,0.439-0.277,0.763-0.277h1.353c0.348,0,0.636,0.064,0.868,0.191
	s0.439,0.353,0.625,0.676l8.431,14.677c0.091,0.138,0.202,0.196,0.33,0.173c0.126-0.022,0.19-0.127,0.19-0.312V27.123
	c0-0.324,0.092-0.578,0.277-0.764c0.185-0.185,0.439-0.277,0.763-0.277h1.215c0.323,0,0.578,0.093,0.763,0.277
	c0.185,0.186,0.277,0.439,0.277,0.764v21.511c0,0.325-0.093,0.579-0.277,0.765c-0.186,0.185-0.44,0.277-0.763,0.277H128.044z"/>
<polygon fill="#C8152F" points="24.174,50.27 24.174,44.322 27.041,44.322 27.041,47.254 41.542,47.254 41.542,44.322
	44.354,44.322 44.354,50.27 "/>
<polygon fill="#C8152F" points="33.784,40.791 33.062,39.193 28.987,39.193 28.987,36.402 33.062,36.402 33.784,34.805
	35.377,34.805 35.377,40.791 "/>
<rect x="24.174" y="36.486" fill="#C8152F" width="2.774" height="2.623"/>
<polygon fill="#C8152F" points="41.542,31.44 41.542,28.264 27.041,28.264 27.041,31.44 24.174,31.44 24.174,25.497 44.354,25.497
	44.354,31.44 "/>
<path fill="#ededed" d="M144.624,49.744c-0.322,0-0.576-0.092-0.761-0.276c-0.185-0.185-0.277-0.438-0.277-0.763V29.652
	c0-0.23-0.116-0.348-0.346-0.348h-5.196c-0.325,0-0.578-0.092-0.762-0.277c-0.185-0.184-0.277-0.438-0.277-0.762v-1.039
	c0-0.322,0.092-0.576,0.277-0.762c0.184-0.186,0.438-0.277,0.762-0.277h14.377c0.323,0,0.577,0.092,0.762,0.277
	c0.185,0.186,0.277,0.439,0.277,0.762v1.039c0,0.324-0.093,0.578-0.277,0.762c-0.185,0.186-0.439,0.277-0.762,0.277h-5.196
	c-0.231,0-0.347,0.117-0.347,0.348v19.053c0,0.324-0.092,0.578-0.276,0.763c-0.186,0.185-0.44,0.276-0.762,0.276H144.624z"/>
<path fill="#ededed" d="M161.084,49.622c-0.323,0-0.577-0.093-0.762-0.276c-0.186-0.186-0.277-0.439-0.277-0.764V27.104
	c0-0.322,0.092-0.576,0.277-0.762c0.185-0.185,0.438-0.277,0.762-0.277h1.213c0.323,0,0.577,0.093,0.762,0.277
	c0.185,0.186,0.277,0.439,0.277,0.762v21.479c0,0.324-0.093,0.578-0.277,0.764c-0.185,0.184-0.439,0.276-0.762,0.276H161.084z"/>
<path fill="#ededed" d="M186.95,49.622c-0.23,0.185-0.49,0.265-0.78,0.242c-0.288-0.023-0.56-0.104-0.814-0.242l-10.081-5.89
	c-0.163-0.092-0.307-0.092-0.433,0c-0.127,0.092-0.214,0.208-0.26,0.347l-1.42,4.712c-0.162,0.555-0.554,0.831-1.178,0.831h-1.698
	c-0.67,0-0.913-0.323-0.728-0.97L176.488,27c0.116-0.369,0.272-0.618,0.468-0.745c0.196-0.126,0.455-0.19,0.779-0.19h2.425
	c0.323,0,0.583,0.064,0.779,0.19c0.196,0.127,0.352,0.376,0.468,0.745l6.617,20.717c0.161,0.531,0.069,0.947-0.278,1.246
	L186.95,49.622z M179.295,30.465c-0.069-0.254-0.186-0.382-0.347-0.382c-0.163,0-0.277,0.128-0.346,0.382l-2.737,9.145
	c-0.093,0.301-0.104,0.526-0.036,0.676c0.07,0.15,0.185,0.271,0.347,0.364l6.513,3.811c0.254,0.162,0.439,0.18,0.554,0.052
	c0.116-0.127,0.15-0.271,0.104-0.433L179.295,30.465z"/>
</svg>
