<?xml version="1.0" encoding="utf-8"?>
<!-- Generator: Adobe Illustrator 16.0.0, SVG Export Plug-In . SVG Version: 6.00 Build 0)  -->
<!DOCTYPE svg PUBLIC "-//W3C//DTD SVG 1.1//EN" "http://www.w3.org/Graphics/SVG/1.1/DTD/svg11.dtd">
<svg version="1.1" id="Layer_1" xmlns="http://www.w3.org/2000/svg" xmlns:xlink="http://www.w3.org/1999/xlink" x="0px" y="0px"
	 width="302.988px" height="70.667px" viewBox="0 0 302.988 70.667" enable-background="new 0 0 302.988 70.667"
	 xml:space="preserve">
<g>
	<path fill="#C8152F" d="M195.787,30.147v-4.433l-1.344,2.286h-1.488l-1.342-2.286v4.433h-2.326v-9.256h2.285l2.127,4.08l2.127-4.08
		h2.285v9.256H195.787z"/>
	<path fill="#C8152F" d="M203.789,22.92v7.228h-2.326V22.92h-2.326v-2.028h6.979v2.028H203.789z"/>
	<path fill="#C8152F" d="M213.156,29.158c-0.707,0.704-1.557,1.067-2.688,1.067c-1.104,0-1.939-0.363-2.631-1.04
		c-0.996-0.977-0.957-2.276-0.957-3.667c0-1.394-0.039-2.693,0.957-3.667c0.691-0.675,1.49-1.039,2.631-1.039
		c1.357,0,2.074,0.311,2.925,1.143l-1.581,1.547c-0.451-0.44-0.745-0.661-1.344-0.661c-0.424,0-0.743,0.181-0.915,0.403
		c-0.214,0.271-0.347,0.584-0.347,2.274c0,1.689,0.133,2.015,0.347,2.288c0.172,0.222,0.491,0.391,0.915,0.391
		c0.492,0,0.744-0.146,0.959-0.363c0.252-0.248,0.346-0.704,0.346-1.016v-0.104h-1.305v-1.898h3.617v1.247
		C214.085,27.561,213.872,28.443,213.156,29.158z"/>
	<path fill="#C8152F" d="M196.314,45.524v-7.038l-2.592,5.582h-0.863l-2.631-5.582v7.038h-1.011v-9.261h1.011l3.084,6.567
		l3.002-6.567h1.01v9.261H196.314z"/>
	<path fill="#C8152F" d="M203.609,45.524v-0.716c-0.229,0.26-0.5,0.456-0.815,0.594c-0.312,0.132-0.655,0.201-1.026,0.201
		c-0.715,0-1.275-0.199-1.682-0.599c-0.229-0.226-0.396-0.487-0.502-0.789c-0.107-0.297-0.16-0.633-0.16-1.007v-4.083h0.957v3.941
		c0,0.57,0.141,0.999,0.424,1.28s0.67,0.422,1.164,0.422s0.889-0.145,1.184-0.43c0.297-0.285,0.444-0.71,0.444-1.272v-3.941h0.969
		v6.398H203.609z"/>
	<path fill="#C8152F" d="M211.179,44.478c-0.129,0.238-0.311,0.443-0.546,0.612c-0.234,0.167-0.514,0.295-0.836,0.382
		c-0.323,0.088-0.685,0.132-1.083,0.132c-0.559,0-1.056-0.071-1.489-0.209c-0.435-0.14-0.833-0.378-1.195-0.716l0.638-0.624
		c0.258,0.27,0.558,0.461,0.902,0.57c0.347,0.114,0.723,0.172,1.131,0.172c0.541,0,0.967-0.095,1.275-0.279
		c0.311-0.188,0.465-0.473,0.465-0.853c0-0.277-0.086-0.495-0.258-0.65c-0.174-0.158-0.451-0.252-0.83-0.288l-1.076-0.09
		c-0.64-0.052-1.123-0.219-1.457-0.5c-0.332-0.281-0.498-0.687-0.498-1.217c0-0.295,0.061-0.557,0.18-0.787
		c0.121-0.229,0.285-0.425,0.498-0.586c0.213-0.159,0.467-0.283,0.765-0.37c0.296-0.086,0.616-0.13,0.963-0.13
		c0.47,0,0.905,0.056,1.31,0.17c0.402,0.111,0.75,0.285,1.042,0.519l-0.624,0.612c-0.23-0.173-0.493-0.301-0.789-0.384
		c-0.299-0.081-0.615-0.122-0.951-0.122c-0.479,0-0.842,0.093-1.09,0.277c-0.248,0.188-0.373,0.447-0.373,0.775
		c0,0.278,0.086,0.493,0.26,0.65c0.173,0.155,0.467,0.25,0.885,0.285l1.049,0.09c0.283,0.028,0.545,0.075,0.783,0.145
		c0.24,0.07,0.443,0.173,0.611,0.312c0.168,0.138,0.299,0.311,0.393,0.52c0.093,0.21,0.141,0.46,0.141,0.755
		C211.373,43.965,211.306,44.24,211.179,44.478z"/>
	<path fill="#C8152F" d="M212.835,37.305V36.25h1.077v1.055H212.835z M212.888,45.524v-6.398h0.957v6.398H212.888z"/>
	<path fill="#C8152F" d="M219.59,45.395c-0.323,0.138-0.712,0.209-1.163,0.209c-0.417,0-0.799-0.069-1.148-0.201
		c-0.35-0.138-0.657-0.34-0.918-0.613c-0.262-0.271-0.465-0.616-0.611-1.027s-0.219-0.891-0.219-1.438
		c0-0.545,0.072-1.021,0.219-1.429c0.146-0.407,0.35-0.75,0.611-1.023c0.261-0.271,0.568-0.478,0.918-0.615s0.731-0.209,1.148-0.209
		c0.451,0,0.84,0.071,1.163,0.209s0.651,0.386,0.989,0.739l-0.65,0.599c-0.248-0.268-0.482-0.455-0.705-0.559
		c-0.221-0.103-0.488-0.158-0.797-0.158c-0.319,0-0.607,0.063-0.863,0.186c-0.257,0.12-0.475,0.303-0.652,0.547
		c-0.15,0.206-0.259,0.444-0.324,0.707c-0.066,0.266-0.1,0.6-0.1,1.007s0.033,0.746,0.1,1.01c0.065,0.264,0.174,0.502,0.324,0.708
		c0.178,0.244,0.396,0.425,0.652,0.545c0.256,0.124,0.544,0.184,0.863,0.184c0.309,0,0.576-0.054,0.797-0.162
		c0.223-0.109,0.457-0.297,0.705-0.566l0.65,0.612C220.242,45.009,219.914,45.255,219.59,45.395z"/>
	<path fill="#C8152F" d="M228.127,37.146v8.378h-1.011v-8.378h-2.737v-0.883h6.485v0.883H228.127z"/>
	<path fill="#C8152F" d="M231.767,42.571c0,0.698,0.164,1.239,0.492,1.623s0.805,0.575,1.435,0.575c0.38,0,0.697-0.058,0.95-0.174
		c0.254-0.118,0.508-0.303,0.764-0.555l0.651,0.561c-0.168,0.163-0.335,0.312-0.497,0.433c-0.164,0.124-0.34,0.227-0.525,0.312
		c-0.186,0.082-0.393,0.147-0.619,0.192c-0.227,0.041-0.477,0.065-0.75,0.065c-0.434,0-0.826-0.065-1.176-0.195
		s-0.649-0.33-0.896-0.6c-0.248-0.27-0.441-0.608-0.579-1.02c-0.137-0.413-0.206-0.9-0.206-1.466c0-1.04,0.24-1.846,0.718-2.418
		c0.479-0.573,1.135-0.858,1.966-0.858c0.852,0,1.51,0.277,1.981,0.83c0.47,0.558,0.703,1.312,0.703,2.266v0.429H231.767z
		 M235.196,41.533c-0.009-0.099-0.021-0.184-0.032-0.262c-0.014-0.079-0.031-0.155-0.055-0.229c-0.022-0.07-0.051-0.151-0.086-0.24
		c-0.123-0.295-0.323-0.529-0.598-0.702c-0.275-0.171-0.585-0.258-0.932-0.258c-0.345,0-0.654,0.087-0.93,0.258
		c-0.273,0.173-0.473,0.407-0.598,0.702c-0.07,0.176-0.12,0.332-0.146,0.47c-0.025,0.14-0.043,0.336-0.053,0.598h3.455
		C235.213,41.739,235.204,41.627,235.196,41.533z"/>
	<path fill="#C8152F" d="M241.646,45.395c-0.322,0.138-0.709,0.209-1.161,0.209c-0.417,0-0.8-0.069-1.151-0.201
		c-0.349-0.138-0.654-0.34-0.914-0.613c-0.264-0.271-0.467-0.616-0.612-1.027c-0.146-0.411-0.22-0.891-0.22-1.438
		c0-0.545,0.073-1.021,0.22-1.429c0.146-0.407,0.349-0.75,0.612-1.023c0.26-0.271,0.565-0.478,0.914-0.615
		c0.352-0.138,0.734-0.209,1.151-0.209c0.452,0,0.839,0.071,1.161,0.209c0.324,0.138,0.654,0.386,0.99,0.739l-0.65,0.599
		c-0.249-0.268-0.482-0.455-0.703-0.559c-0.223-0.103-0.487-0.158-0.798-0.158c-0.319,0-0.606,0.063-0.864,0.186
		c-0.258,0.12-0.474,0.303-0.65,0.547c-0.15,0.206-0.259,0.444-0.326,0.707c-0.066,0.266-0.1,0.6-0.1,1.007s0.033,0.746,0.1,1.01
		c0.067,0.264,0.176,0.502,0.326,0.708c0.177,0.244,0.393,0.425,0.65,0.545c0.258,0.124,0.545,0.184,0.864,0.184
		c0.311,0,0.575-0.054,0.798-0.162c0.221-0.109,0.454-0.297,0.703-0.566l0.65,0.612C242.3,45.009,241.97,45.255,241.646,45.395z"/>
	<path fill="#C8152F" d="M248.314,45.524v-3.956c0-0.56-0.143-0.984-0.426-1.266c-0.284-0.281-0.674-0.426-1.169-0.426
		c-0.497,0-0.893,0.146-1.19,0.432c-0.297,0.285-0.445,0.708-0.445,1.26v3.956h-0.957v-9.261h0.957v3.562
		c0.469-0.52,1.082-0.779,1.834-0.779c0.744,0,1.322,0.213,1.734,0.638s0.619,1.001,0.619,1.73v4.109H248.314z"/>
	<path fill="#C8152F" d="M255.428,45.524v-3.94c0-0.571-0.144-1-0.432-1.281s-0.681-0.426-1.176-0.426s-0.892,0.146-1.183,0.432
		c-0.293,0.285-0.438,0.712-0.438,1.275v3.94h-0.957v-6.398h0.957v0.7c0.23-0.258,0.5-0.454,0.811-0.584
		c0.31-0.132,0.651-0.195,1.022-0.195c0.709,0,1.267,0.199,1.674,0.599c0.453,0.435,0.678,1.026,0.678,1.781v4.098H255.428z"/>
	<path fill="#C8152F" d="M263.234,43.723c-0.102,0.438-0.316,0.82-0.645,1.152c-0.229,0.225-0.499,0.403-0.811,0.533
		c-0.311,0.13-0.663,0.195-1.062,0.195c-0.398,0-0.754-0.065-1.062-0.195c-0.31-0.13-0.58-0.309-0.811-0.533
		c-0.169-0.165-0.304-0.346-0.405-0.541c-0.103-0.196-0.183-0.399-0.239-0.611c-0.059-0.211-0.098-0.435-0.119-0.671
		c-0.023-0.232-0.034-0.475-0.034-0.729c0-0.241,0.011-0.483,0.034-0.722c0.021-0.238,0.061-0.462,0.119-0.676
		c0.057-0.212,0.137-0.417,0.239-0.611c0.102-0.195,0.236-0.374,0.405-0.539c0.23-0.227,0.501-0.403,0.811-0.533
		c0.309-0.132,0.664-0.195,1.062-0.195c0.399,0,0.752,0.063,1.062,0.195c0.312,0.13,0.581,0.307,0.811,0.533
		c0.328,0.328,0.543,0.714,0.645,1.15c0.103,0.438,0.152,0.904,0.152,1.397C263.386,42.819,263.336,43.286,263.234,43.723z
		 M262.417,41.778c-0.008-0.183-0.031-0.359-0.066-0.534c-0.035-0.173-0.089-0.336-0.16-0.487c-0.07-0.149-0.164-0.287-0.279-0.409
		c-0.318-0.312-0.717-0.471-1.195-0.471c-0.469,0-0.865,0.158-1.184,0.471c-0.123,0.122-0.217,0.26-0.284,0.409
		c-0.067,0.151-0.121,0.314-0.159,0.487c-0.041,0.175-0.064,0.352-0.074,0.534c-0.009,0.182-0.013,0.364-0.013,0.545
		c0,0.184,0.004,0.364,0.013,0.548c0.01,0.181,0.033,0.359,0.074,0.532c0.038,0.174,0.092,0.339,0.159,0.494
		c0.067,0.157,0.161,0.293,0.284,0.403c0.318,0.312,0.715,0.469,1.184,0.469c0.479,0,0.877-0.156,1.195-0.469
		c0.115-0.11,0.209-0.246,0.279-0.403c0.071-0.155,0.125-0.32,0.16-0.494c0.035-0.173,0.059-0.352,0.066-0.532
		c0.008-0.184,0.014-0.364,0.014-0.548C262.431,42.143,262.425,41.96,262.417,41.778z"/>
	<path fill="#C8152F" d="M266.728,45.524c-0.575,0-0.995-0.161-1.261-0.488c-0.267-0.324-0.398-0.729-0.398-1.218v-7.555h0.957
		v7.518c0,0.311,0.062,0.547,0.185,0.702c0.124,0.158,0.354,0.234,0.691,0.234h0.518v0.807H266.728z"/>
	<path fill="#C8152F" d="M273.589,43.723c-0.101,0.438-0.316,0.82-0.645,1.152c-0.23,0.225-0.5,0.403-0.811,0.533
		s-0.664,0.195-1.062,0.195s-0.754-0.065-1.062-0.195c-0.311-0.13-0.58-0.309-0.811-0.533c-0.169-0.165-0.304-0.346-0.406-0.541
		c-0.102-0.196-0.182-0.399-0.238-0.611c-0.059-0.211-0.098-0.435-0.121-0.671c-0.021-0.232-0.031-0.475-0.031-0.729
		c0-0.241,0.01-0.483,0.031-0.722c0.023-0.238,0.062-0.462,0.121-0.676c0.057-0.212,0.137-0.417,0.238-0.611
		c0.103-0.195,0.237-0.374,0.406-0.539c0.23-0.227,0.5-0.403,0.811-0.533c0.309-0.132,0.664-0.195,1.062-0.195
		s0.752,0.063,1.062,0.195c0.311,0.13,0.58,0.307,0.811,0.533c0.328,0.328,0.544,0.714,0.645,1.15
		c0.104,0.438,0.153,0.904,0.153,1.397C273.743,42.819,273.693,43.286,273.589,43.723z M272.773,41.778
		c-0.01-0.183-0.031-0.359-0.066-0.534c-0.036-0.173-0.088-0.336-0.16-0.487c-0.07-0.149-0.164-0.287-0.278-0.409
		c-0.319-0.312-0.718-0.471-1.196-0.471c-0.471,0-0.864,0.158-1.184,0.471c-0.123,0.122-0.218,0.26-0.285,0.409
		c-0.066,0.151-0.119,0.314-0.159,0.487c-0.04,0.175-0.063,0.352-0.073,0.534c-0.008,0.182-0.014,0.364-0.014,0.545
		c0,0.184,0.006,0.364,0.014,0.548c0.01,0.181,0.033,0.359,0.073,0.532c0.04,0.174,0.093,0.339,0.159,0.494
		c0.067,0.157,0.162,0.293,0.285,0.403c0.319,0.312,0.713,0.469,1.184,0.469c0.479,0,0.877-0.156,1.196-0.469
		c0.114-0.11,0.208-0.246,0.278-0.403c0.072-0.155,0.124-0.32,0.16-0.494c0.035-0.173,0.057-0.352,0.066-0.532
		c0.008-0.184,0.013-0.364,0.013-0.548C272.786,42.143,272.781,41.96,272.773,41.778z"/>
	<path fill="#C8152F" d="M280.161,46.819c-0.125,0.332-0.301,0.621-0.532,0.863c-0.23,0.244-0.516,0.435-0.856,0.574
		c-0.341,0.138-0.726,0.207-1.149,0.207c-0.248,0-0.471-0.016-0.664-0.048c-0.195-0.029-0.379-0.078-0.551-0.151
		c-0.174-0.068-0.342-0.159-0.506-0.27s-0.33-0.244-0.498-0.403l0.623-0.598c0.117,0.104,0.229,0.194,0.339,0.273
		c0.111,0.078,0.227,0.146,0.347,0.2c0.119,0.058,0.25,0.099,0.393,0.124c0.141,0.027,0.305,0.04,0.491,0.04
		c0.319,0,0.591-0.052,0.816-0.154c0.227-0.104,0.412-0.241,0.558-0.415c0.146-0.169,0.253-0.375,0.318-0.609
		c0.067-0.236,0.102-0.494,0.102-0.768v-0.993c-0.266,0.324-0.549,0.543-0.852,0.653c-0.3,0.11-0.629,0.165-0.983,0.165
		c-0.335,0-0.64-0.051-0.909-0.153c-0.271-0.106-0.494-0.244-0.671-0.419c-0.329-0.321-0.543-0.717-0.644-1.183
		c-0.103-0.468-0.154-0.962-0.154-1.483c0-0.52,0.052-1.013,0.154-1.482c0.101-0.47,0.314-0.861,0.644-1.185
		c0.177-0.173,0.402-0.309,0.677-0.409c0.274-0.1,0.58-0.149,0.918-0.149c0.361,0,0.692,0.054,0.99,0.164
		c0.295,0.107,0.578,0.33,0.842,0.666v-0.751h0.945v6.595C280.347,46.116,280.285,46.486,280.161,46.819z M279.336,41.399
		c-0.034-0.291-0.111-0.548-0.226-0.771c-0.115-0.223-0.279-0.401-0.492-0.541c-0.212-0.14-0.496-0.211-0.85-0.211
		c-0.354,0-0.641,0.071-0.858,0.211c-0.216,0.14-0.382,0.318-0.497,0.541s-0.191,0.479-0.227,0.771s-0.053,0.584-0.053,0.879
		c0,0.305,0.018,0.603,0.053,0.888c0.035,0.287,0.111,0.541,0.227,0.763c0.115,0.223,0.281,0.403,0.497,0.541
		c0.218,0.14,0.504,0.209,0.858,0.209c0.354,0,0.638-0.069,0.85-0.209c0.213-0.138,0.377-0.318,0.492-0.541
		c0.114-0.222,0.191-0.476,0.226-0.763c0.036-0.285,0.054-0.583,0.054-0.888C279.39,41.983,279.373,41.69,279.336,41.399z"/>
	<path fill="#C8152F" d="M284.263,47.072c-0.125,0.339-0.28,0.591-0.467,0.754c-0.178,0.165-0.376,0.281-0.596,0.347
		c-0.223,0.062-0.449,0.096-0.68,0.096h-0.412v-0.832h0.293c0.327,0,0.562-0.059,0.704-0.175c0.142-0.118,0.266-0.323,0.372-0.618
		l0.465-1.249l-2.352-6.269h1.036l1.794,5.136l1.781-5.136h1.035L284.263,47.072z"/>
	<path fill="#C8152F" d="M195.656,57.072c-0.125,0.376-0.332,0.716-0.624,1.02c-0.337,0.355-0.72,0.623-1.149,0.801
		c-0.43,0.179-0.89,0.268-1.375,0.268c-0.471,0-0.912-0.083-1.322-0.248c-0.412-0.164-0.777-0.403-1.096-0.717
		c-0.223-0.216-0.393-0.44-0.513-0.677c-0.119-0.233-0.208-0.495-0.266-0.786c-0.058-0.289-0.091-0.62-0.1-0.988
		c-0.01-0.367-0.014-0.801-0.014-1.294c0-0.496,0.004-0.925,0.014-1.293c0.009-0.371,0.042-0.7,0.1-0.989
		c0.058-0.291,0.146-0.555,0.266-0.789c0.12-0.232,0.29-0.458,0.513-0.675c0.654-0.642,1.461-0.962,2.418-0.962
		c0.451,0,0.865,0.065,1.242,0.201c0.377,0.134,0.707,0.326,0.99,0.572s0.516,0.539,0.697,0.879
		c0.182,0.337,0.308,0.709,0.379,1.118h-1.01c-0.133-0.591-0.402-1.053-0.805-1.386c-0.404-0.334-0.901-0.501-1.494-0.501
		c-0.311,0-0.609,0.059-0.897,0.175c-0.288,0.118-0.533,0.281-0.737,0.488c-0.15,0.147-0.27,0.307-0.359,0.476
		c-0.088,0.167-0.154,0.37-0.198,0.604c-0.045,0.234-0.075,0.52-0.087,0.853c-0.014,0.332-0.02,0.745-0.02,1.229
		c0,0.485,0.006,0.895,0.02,1.229c0.012,0.334,0.042,0.619,0.087,0.859c0.044,0.238,0.11,0.442,0.198,0.61
		c0.09,0.169,0.209,0.328,0.359,0.476c0.204,0.207,0.449,0.368,0.737,0.48s0.587,0.169,0.897,0.169c0.345,0,0.676-0.067,0.99-0.2
		c0.313-0.137,0.582-0.335,0.803-0.593c0.194-0.227,0.332-0.472,0.412-0.735c0.079-0.266,0.119-0.581,0.119-0.944v-0.7h-2.324
		v-0.874h3.335v1.472C195.842,56.236,195.781,56.692,195.656,57.072z"/>
	<path fill="#C8152F" d="M201.341,53.903c-0.178-0.173-0.345-0.293-0.504-0.364c-0.16-0.068-0.369-0.104-0.626-0.104
		c-0.239,0-0.455,0.046-0.649,0.132c-0.195,0.087-0.359,0.207-0.492,0.364c-0.135,0.155-0.237,0.336-0.312,0.545
		c-0.075,0.211-0.113,0.435-0.113,0.677v3.929h-0.957v-6.399h0.957v0.779c0.177-0.268,0.432-0.479,0.764-0.632
		c0.332-0.149,0.689-0.227,1.07-0.227c0.309,0,0.592,0.044,0.844,0.13c0.252,0.087,0.494,0.244,0.725,0.471L201.341,53.903z"/>
	<path fill="#C8152F" d="M207.922,57.279c-0.102,0.438-0.317,0.82-0.646,1.152c-0.23,0.225-0.5,0.403-0.811,0.533
		c-0.309,0.128-0.664,0.195-1.062,0.195c-0.396,0-0.752-0.067-1.062-0.195c-0.311-0.13-0.58-0.309-0.811-0.533
		c-0.168-0.165-0.303-0.346-0.404-0.541c-0.103-0.196-0.182-0.399-0.239-0.611c-0.06-0.213-0.099-0.438-0.121-0.671
		c-0.021-0.232-0.032-0.475-0.032-0.729c0-0.241,0.011-0.483,0.032-0.722c0.022-0.238,0.062-0.462,0.121-0.677
		c0.058-0.213,0.137-0.415,0.239-0.611c0.102-0.195,0.236-0.374,0.404-0.537c0.23-0.229,0.5-0.403,0.811-0.533
		c0.311-0.132,0.666-0.197,1.062-0.197c0.398,0,0.754,0.065,1.062,0.197c0.311,0.13,0.58,0.305,0.811,0.533
		c0.328,0.328,0.544,0.712,0.646,1.148c0.103,0.438,0.153,0.905,0.153,1.398C208.076,56.376,208.025,56.84,207.922,57.279z
		 M207.105,55.335c-0.009-0.183-0.031-0.359-0.066-0.535c-0.035-0.173-0.088-0.334-0.159-0.487
		c-0.071-0.149-0.163-0.287-0.279-0.409c-0.318-0.313-0.717-0.469-1.196-0.469c-0.47,0-0.863,0.155-1.182,0.469
		c-0.124,0.122-0.22,0.26-0.285,0.409c-0.067,0.153-0.121,0.314-0.16,0.487c-0.039,0.176-0.064,0.353-0.072,0.535
		c-0.01,0.182-0.015,0.364-0.015,0.545c0,0.184,0.005,0.364,0.015,0.547c0.008,0.182,0.033,0.36,0.072,0.533
		c0.039,0.174,0.093,0.339,0.16,0.494c0.065,0.155,0.161,0.291,0.285,0.403c0.318,0.312,0.712,0.468,1.182,0.468
		c0.479,0,0.878-0.155,1.196-0.468c0.116-0.112,0.208-0.248,0.279-0.403s0.124-0.32,0.159-0.494
		c0.035-0.173,0.058-0.352,0.066-0.533c0.009-0.183,0.015-0.363,0.015-0.547C207.12,55.699,207.114,55.517,207.105,55.335z"/>
	<path fill="#C8152F" d="M213.901,59.081v-0.716c-0.228,0.26-0.499,0.456-0.814,0.592c-0.313,0.134-0.655,0.203-1.026,0.203
		c-0.715,0-1.275-0.201-1.682-0.599c-0.229-0.227-0.398-0.487-0.502-0.789c-0.107-0.299-0.16-0.633-0.16-1.007v-4.084h0.956v3.942
		c0,0.57,0.142,0.999,0.425,1.28s0.669,0.421,1.164,0.421c0.494,0,0.889-0.144,1.184-0.429c0.297-0.287,0.444-0.71,0.444-1.272
		v-3.942h0.969v6.399H213.901z"/>
	<path fill="#C8152F" d="M222.038,56.636c-0.021,0.25-0.062,0.496-0.12,0.733c-0.057,0.238-0.138,0.463-0.238,0.671
		c-0.104,0.209-0.236,0.396-0.404,0.559c-0.178,0.174-0.404,0.312-0.678,0.411c-0.275,0.099-0.582,0.15-0.918,0.15
		c-0.363,0-0.695-0.058-0.997-0.172c-0.3-0.11-0.584-0.332-0.85-0.663v3.618h-0.956v-9.262h0.956v0.753
		c0.266-0.338,0.55-0.561,0.85-0.669c0.302-0.107,0.634-0.163,0.997-0.163c0.336,0,0.643,0.05,0.918,0.151
		c0.273,0.099,0.5,0.234,0.678,0.409c0.168,0.164,0.301,0.351,0.404,0.559c0.101,0.209,0.182,0.432,0.238,0.669
		c0.059,0.238,0.099,0.484,0.12,0.734c0.022,0.254,0.033,0.506,0.033,0.755C222.071,56.134,222.06,56.384,222.038,56.636z
		 M221.062,54.972c-0.037-0.298-0.11-0.555-0.227-0.781c-0.115-0.225-0.281-0.407-0.498-0.547s-0.504-0.209-0.857-0.209
		s-0.639,0.069-0.857,0.209c-0.217,0.14-0.383,0.322-0.498,0.547c-0.115,0.227-0.193,0.483-0.232,0.781
		c-0.04,0.293-0.06,0.596-0.06,0.908c0,0.313,0.02,0.618,0.06,0.911c0.039,0.295,0.117,0.557,0.232,0.781
		c0.115,0.226,0.281,0.407,0.498,0.547c0.219,0.138,0.504,0.206,0.857,0.206s0.641-0.068,0.857-0.206
		c0.217-0.14,0.383-0.321,0.498-0.547c0.116-0.225,0.189-0.486,0.227-0.781c0.035-0.293,0.052-0.598,0.052-0.911
		C221.114,55.567,221.097,55.265,221.062,54.972z"/>
</g>
<g>
	<path fill="#C8152F" d="M41.838,43.464c-0.994,0-1.348-0.432-1.348-1.461l0.035-8.323c0-0.316-0.067-0.484-0.418-0.484
		c-0.092,0-0.301,0.023-0.621,0.059c-0.728,0.084-2.076,0.203-3.689,0.252l-0.07,0.004v1.041H35.8c0.849,0,1.414,0.23,1.414,1.219
		l-0.032,2.422c0,4.015-1.609,4.792-2.785,4.792c-0.961,0-1.32-0.994-1.32-1.83l0.047-7.474c0-0.316-0.068-0.484-0.418-0.484
		c-0.091,0-0.304,0.023-0.623,0.059c-0.727,0.084-1.922,0.203-3.531,0.252l-0.072,0.004v1.041h0.074c0.852,0,1.414,0.23,1.414,1.219
		l-0.045,5.039c0,3.284,1.697,3.974,3.121,3.974c2.123,0,3.342-1.385,4.004-2.127c0.183-0.207,0.369-0.418,0.436-0.418
		c0.033,0,0.133,0,0.133,0.156v2.041c0,0.303,0.204,0.348,0.324,0.348c0.093,0,0.299-0.027,0.608-0.072
		c0.75-0.1,2.008-0.203,3.29-0.203h0.075v-1.043H41.838z"/>
	<path fill="#C8152F" d="M63.817,27.551c-2.896,0-3.68,4.062-4.055,6.076h-2.336l-0.214,1.043h2.392l-0.156,1.012
		c-0.105,0.678-0.209,1.355-0.312,2.043l-0.177,1.166c-1.019,6.72-1.532,9.706-2.644,9.706c-0.125,0-0.155-0.037-0.155-0.18
		c0-0.047,0.015-0.105,0.032-0.174c0.029-0.098,0.059-0.221,0.059-0.377c0-0.461-0.341-0.785-0.828-0.785
		c-0.73,0-1.061,0.525-1.061,1.016c0,0.906,0.66,1.541,1.61,1.541c1.7,0,3.785-1.959,5.662-14.968h2.589l0.184-1.043h-2.64
		l0.22-1.705c0.325-2.336,0.748-3.328,1.416-3.328c0.269,0,0.432,0.135,0.432,0.359c0,0.148-0.02,0.223-0.041,0.299
		c-0.023,0.09-0.051,0.182-0.051,0.365c0,0.385,0.24,0.834,0.924,0.834c0.826,0,1.195-0.637,1.195-1.268
		C65.862,28.146,65.118,27.551,63.817,27.551"/>
	<path fill="#C8152F" d="M65.459,42.021c-0.747,0-1.355,0.609-1.355,1.359c0,0.746,0.608,1.357,1.355,1.357
		c0.75,0,1.36-0.611,1.36-1.357C66.82,42.63,66.209,42.021,65.459,42.021"/>
</g>
<path fill="#C8152F" d="M24.816,62.778h46.245V16.535H24.816V62.778z M73.846,65.567H22.029V13.748h51.817V65.567z"/>
<g>
	<path fill="#C8152F" d="M53.309,37.395c0,1.863-0.891,5.946-3.539,5.946c-1.479,0-2.001-1.5-2.001-2.782
		c0-2.482,1.181-5.924,3.401-5.924C52.938,34.635,53.309,36.137,53.309,37.395 M51.792,33.195c-2.08,0-3.205,1.441-3.689,2.133
		c-0.027-1.377-0.539-2.02-1.606-2.02c-1.726,0-2.735,2.355-3.278,3.623L43.19,36.99l0.814,0.461l0.035-0.068
		c0.037-0.078,0.084-0.188,0.146-0.318c0.353-0.785,1.087-2.416,1.849-2.416c0.416,0,0.478,0.514,0.478,0.82
		c0,0.439-0.133,1.135-0.364,2.186l-2.155,9.241c-0.312,1.371-0.462,1.592-1.831,1.592H42.1l-0.187,1.041H47.7l0.24-1.041h-0.092
		c-1.788,0-2.085-0.02-2.085-0.705c0-0.145,0.081-0.488,0.144-0.766l1.023-4.334c0.557,1.16,1.234,2.1,3.299,2.1
		c3.55,0,5.441-3.997,5.441-6.882C55.67,35.559,54.471,33.195,51.792,33.195"/>
	<path fill="#C8152F" d="M81.399,20.883h5.156v0.627h-0.326c-0.901,0-1.133,0.383-1.133,0.955v4.557c0,1.678,0.75,2.564,2.264,2.564
		c1.406,0,2.143-0.559,2.498-1.432c0.162-0.41,0.191-1.037,0.191-1.406V23.01c0-1.24-0.615-1.5-1.461-1.5v-0.627h3.397v0.627
		c-1.119,0-1.255,0.504-1.255,1.5v3.738c0,2.047-0.887,3.672-3.889,3.672c-2.771,0-4.107-1.393-4.107-3.398v-3.971
		c0-1.459-0.273-1.541-1.336-1.541V20.883z"/>
	<path fill="#C8152F" d="M92.083,29.682c0.641,0,0.914-0.191,0.914-0.873v-3.711c0-0.668-0.369-0.75-0.982-0.75v-0.533
		c1.146-0.025,2.374-0.203,2.564-0.203c0.109,0,0.123,0.096,0.123,0.217v0.955c0,0.191,0.014,0.287,0.082,0.287
		c0.15,0,0.723-1.459,2.169-1.459c1.337,0,2.005,0.832,2.005,2.25v3.152c0,0.52,0.287,0.668,0.833,0.668v0.533h-3.52v-0.533
		c0.423,0,0.804-0.082,0.804-0.627V25.67c0-0.818-0.381-1.076-0.79-1.076c-0.696,0-1.405,0.764-1.405,2.033v2.414
		c0,0.572,0.367,0.641,0.791,0.641v0.533h-3.588V29.682z"/>
	<path fill="#C8152F" d="M102.131,20.145c0.573,0,1.051,0.465,1.051,1.037c0,0.574-0.478,1.037-1.051,1.037
		c-0.572,0-1.051-0.463-1.051-1.037C101.081,20.609,101.559,20.145,102.131,20.145 M100.44,29.682c0.641,0,0.982,0,0.982-0.695
		v-3.684c0-0.859-0.382-0.955-0.982-0.955v-0.533c1.434-0.055,2.265-0.203,2.66-0.203c0.15,0,0.205,0.053,0.205,0.383v4.992
		c0,0.695,0.327,0.695,0.9,0.695v0.533h-3.766V29.682z"/>
	<path fill="#C8152F" d="M104.321,23.814h3.753v0.533c-0.383,0-0.818,0.055-0.818,0.531c0,0.314,0.177,0.764,0.477,1.461
		l0.818,1.883c0.082,0.191,0.123,0.273,0.165,0.273c0.067,0,0.095-0.137,0.149-0.273l0.614-1.557c0.19-0.477,0.45-1.158,0.45-1.623
		c0-0.49-0.328-0.695-0.859-0.695v-0.533h2.374v0.533c-0.327,0.041-0.519,0.164-0.806,0.873l-2.061,5.076h-1.146l-2.17-5.062
		c-0.312-0.736-0.381-0.887-0.941-0.887V23.814z"/>
	<path fill="#C8152F" d="M115.404,26.422c0.082,0,0.108-0.041,0.108-0.137v-0.273c0-1.215-0.3-1.869-0.929-1.869
		c-0.559,0-0.928,0.6-0.928,1.938v0.342H115.404z M117.558,28.223c-0.422,1.377-1.514,2.197-2.906,2.197
		c-1.623,0-3.097-1.434-3.097-3.398c0-1.979,1.474-3.41,3.138-3.41c1.814,0,2.825,1.418,2.825,3.342h-3.862v0.26
		c0,1.76,0.778,2.375,1.543,2.375c0.969,0,1.459-0.67,1.746-1.365H117.558z"/>
	<path fill="#C8152F" d="M117.869,29.682c0.656,0,1.16,0,1.16-0.832v-3.752c0-0.668-0.367-0.75-1.118-0.75v-0.533
		c0.981-0.025,2.483-0.203,2.634-0.203c0.096,0,0.122,0.066,0.122,0.191v1.117c0,0.055,0,0.15,0.068,0.15
		c0.204,0,0.628-1.459,1.72-1.459c0.695,0,1.064,0.477,1.064,1.172c0,0.561-0.301,1.064-0.929,1.064c-0.928,0-0.778-1.01-0.969-1.01
		c-0.205,0-0.709,0.588-0.709,1.924v2.088c0,0.832,0.478,0.832,1.364,0.832v0.533h-4.408V29.682z"/>
	<path fill="#C8152F" d="M128.189,25.535c-0.287-0.875-0.846-1.393-1.787-1.393c-0.572,0-0.982,0.246-0.982,0.818
		c0,1.201,3.643,0.887,3.643,3.371c0,1.186-0.969,2.086-2.278,2.086c-0.846,0-1.351-0.367-1.651-0.367
		c-0.163,0-0.312,0.123-0.367,0.34h-0.492c0.014-0.367,0.041-0.736,0.041-1.104c0-0.369-0.027-0.723-0.041-1.092h0.519
		c0.15,0.969,0.982,1.691,1.938,1.691c0.641,0,1.077-0.328,1.077-0.832c0-1.637-3.644-1.119-3.644-3.615
		c0-1.174,1.092-1.828,2.252-1.828c0.805,0,0.996,0.271,1.351,0.271c0.218,0,0.382-0.055,0.45-0.23h0.424
		c-0.014,0.312-0.042,0.627-0.042,0.941c0,0.312,0.028,0.627,0.042,0.941H128.189z"/>
	<path fill="#C8152F" d="M131.322,20.145c0.572,0,1.051,0.465,1.051,1.037c0,0.574-0.479,1.037-1.051,1.037
		c-0.574,0-1.051-0.463-1.051-1.037C130.271,20.609,130.748,20.145,131.322,20.145 M129.63,29.682c0.641,0,0.982,0,0.982-0.695
		v-3.684c0-0.859-0.383-0.955-0.982-0.955v-0.533c1.432-0.055,2.264-0.203,2.66-0.203c0.149,0,0.204,0.053,0.204,0.383v4.992
		c0,0.695,0.327,0.695,0.9,0.695v0.533h-3.765V29.682z"/>
	<path fill="#C8152F" d="M133.544,23.896c1.35-0.367,1.992-1.555,2.414-2.729h0.506v2.646h1.541v0.533h-1.541v4.365
		c0,0.602,0.258,0.725,0.518,0.725c0.437,0,0.668-0.424,0.859-0.752l0.45,0.205c-0.382,0.941-0.996,1.529-2.061,1.529
		c-1.118,0-1.65-0.588-1.65-1.844v-4.229h-1.036V23.896z"/>
	<path fill="#C8152F" d="M141.685,29.586c0.766,0,1.283-0.682,1.283-2.059c0-0.533,0-0.615-0.068-0.615
		c-0.518,0-2.033,0.273-2.033,1.541C140.867,29.191,141.126,29.586,141.685,29.586 M144.851,29.041c0,0.287,0.123,0.396,0.328,0.396
		c0.123,0,0.204-0.043,0.26-0.043c0.054,0,0.096,0.055,0.096,0.139c0,0.641-0.643,0.887-1.161,0.887
		c-0.94,0-1.228-0.725-1.364-0.957c-0.26,0.205-1.105,0.957-2.251,0.957c-1.132,0-1.774-0.697-1.774-1.598
		c0-1.91,2.565-2.279,3.984-2.348v-0.9c0-1.021-0.518-1.432-1.474-1.432c-0.546,0-0.736,0.137-0.736,0.301
		c0,0.285,0.396,0.189,0.396,0.818c0,0.449-0.272,0.873-0.955,0.873c-0.586,0-0.928-0.49-0.928-1.023c0-0.982,1.064-1.5,2.388-1.5
		c2.36,0,3.192,0.982,3.192,2.852V29.041z"/>
	<path fill="#C8152F" d="M145.714,23.896c1.35-0.367,1.992-1.555,2.414-2.729h0.506v2.646h1.541v0.533h-1.541v4.365
		c0,0.602,0.258,0.725,0.518,0.725c0.437,0,0.669-0.424,0.859-0.752l0.451,0.205c-0.383,0.941-0.997,1.529-2.061,1.529
		c-1.119,0-1.651-0.588-1.651-1.844v-4.229h-1.036V23.896z"/>
	<path fill="#C8152F" d="M85.232,39.387c0,0.109,0.054,0.15,0.231,0.15c1.502,0,2.061-0.41,2.061-1.965
		c0-0.982-0.341-1.746-1.445-1.746c-0.561,0-0.847,0.246-0.847,0.928V39.387z M81.643,43.944h0.383c0.627,0,0.846-0.314,0.846-0.75
		v-6.399c0-0.887-0.41-0.928-1.229-0.928V35.24h4.926c2.564,0,3.562,0.982,3.562,2.414c0,2.033-2.13,2.469-3.809,2.469h-0.859
		c-0.178,0-0.231,0.041-0.231,0.15v2.921c0,0.695,0.313,0.75,1.282,0.75h0.273v0.627h-5.145V43.944z"/>
	<path fill="#C8152F" d="M93.588,44.245c0.695,0,1.201-0.355,1.201-2.865c0-2.552-0.588-2.88-1.201-2.88s-1.201,0.328-1.201,2.88
		C92.387,43.89,92.893,44.245,93.588,44.245 M93.588,37.967c1.746,0,3.302,1.434,3.302,3.413c0,1.963-1.474,3.396-3.302,3.396
		s-3.302-1.434-3.302-3.396C90.287,39.4,91.842,37.967,93.588,37.967"/>
	<path fill="#C8152F" d="M97.339,44.04c0.45,0,0.832-0.055,0.832-0.832v-3.753c0-0.668-0.354-0.75-0.832-0.75v-0.533
		c0.941-0.055,2.128-0.205,2.36-0.205c0.096,0,0.122,0.07,0.122,0.191v0.9c0,0.232,0,0.369,0.082,0.369
		c0.178,0,0.696-1.461,2.183-1.461c1.721,0,1.748,1.488,1.924,1.488c0.164,0,0.465-1.488,2.115-1.488
		c1.214,0,1.979,0.875,1.979,2.375v2.866c0,0.682,0.204,0.832,0.818,0.832v0.531h-3.506V44.04c0.422,0,0.805-0.055,0.805-0.832
		v-2.661c0-1.201-0.327-1.596-0.887-1.596c-0.71,0-1.256,1.076-1.256,2.292v1.965c0,0.682,0.205,0.832,0.819,0.832v0.531h-3.507
		V44.04c0.424,0,0.805-0.055,0.805-0.832v-2.661c0-1.201-0.326-1.596-0.886-1.596c-0.71,0-1.256,1.076-1.256,2.292v1.965
		c0,0.682,0.204,0.832,0.819,0.832v0.531h-3.534V44.04z"/>
	<path fill="#C8152F" d="M113.086,43.944c0.832,0,1.2-0.914,1.2-2.512c0-1.882-0.259-2.632-1.172-2.632
		c-1.065,0-1.229,1.418-1.229,2.632C111.886,42.921,112.254,43.944,113.086,43.944 M109.021,46.7c0.45,0,0.982-0.137,0.982-0.709
		v-6.536c0-0.668-0.369-0.75-0.982-0.75v-0.533c0.9-0.027,2.346-0.205,2.496-0.205c0.096,0,0.123,0.096,0.123,0.191v0.67
		c0,0.217,0.027,0.285,0.068,0.285c0.137,0,0.627-1.146,2.02-1.146c1.473,0,2.66,1.215,2.66,3.274c0,1.994-0.969,3.535-2.688,3.535
		c-1.27,0-1.583-0.859-1.72-0.859c-0.067,0-0.095,0.082-0.095,0.164v1.938c0,0.627,0.396,0.682,1.377,0.682v0.531h-4.242V46.7z"/>
	<path fill="#C8152F" d="M121.121,40.777c0.083,0,0.109-0.039,0.109-0.135v-0.273c0-1.215-0.3-1.869-0.928-1.869
		c-0.559,0-0.928,0.6-0.928,1.938v0.34H121.121z M123.277,42.579c-0.423,1.379-1.514,2.197-2.906,2.197
		c-1.623,0-3.098-1.432-3.098-3.396c0-1.979,1.475-3.413,3.139-3.413c1.814,0,2.824,1.42,2.824,3.345h-3.861v0.26
		c0,1.76,0.777,2.373,1.543,2.373c0.968,0,1.459-0.668,1.746-1.365H123.277z"/>
	<path fill="#C8152F" d="M123.625,38.172c1.365-0.041,2.388-0.205,2.565-0.205c0.163,0,0.204,0.055,0.204,0.246v4.448
		c0,0.643,0.191,1.133,0.736,1.133c0.765,0,1.502-0.887,1.502-2.4v-1.938c0-0.654-0.424-0.75-0.887-0.75v-0.533
		c1.364-0.041,2.387-0.205,2.564-0.205c0.164,0,0.204,0.055,0.204,0.246v4.954c0,0.613,0.204,0.873,0.847,0.873v0.531
		c-1.078,0-2.143,0.205-2.32,0.205c-0.122,0-0.149-0.082-0.149-0.164v-1.215c0-0.082-0.041-0.135-0.123-0.135
		c-0.218,0-0.75,1.514-2.442,1.514c-1.051,0-1.814-0.641-1.814-2.32v-3.001c0-0.654-0.423-0.75-0.887-0.75V38.172z"/>
	<path fill="#C8152F" d="M135.644,43.944h0.342c0.627,0,0.846-0.314,0.846-0.75v-6.399c0-0.887-0.409-0.928-1.188-0.928V35.24h8.459
		l0.055,2.852h-0.627c-0.164-1.543-1.27-2.266-2.784-2.266c-1.378,0-1.555,0.15-1.555,0.709v2.674c0,0.178,0.041,0.232,0.204,0.232
		c1.133,0,1.828-0.273,1.828-1.691h0.628v4.038h-0.601c-0.081-1.255-0.477-1.761-1.732-1.761c-0.259,0-0.327,0.027-0.327,0.205
		v2.962c0,0.695,0.313,0.75,1.282,0.75h0.232v0.627h-5.062V43.944z"/>
	<path fill="#C8152F" d="M147.16,43.944c0.764,0,1.282-0.682,1.282-2.061c0-0.531,0-0.613-0.067-0.613
		c-0.52,0-2.033,0.273-2.033,1.541C146.341,43.548,146.6,43.944,147.16,43.944 M150.325,43.397c0,0.287,0.123,0.396,0.327,0.396
		c0.123,0,0.205-0.041,0.26-0.041s0.096,0.055,0.096,0.137c0,0.643-0.642,0.887-1.16,0.887c-0.941,0-1.228-0.723-1.363-0.955
		c-0.26,0.205-1.105,0.955-2.252,0.955c-1.133,0-1.774-0.695-1.774-1.596c0-1.91,2.565-2.28,3.984-2.349v-0.9
		c0-1.021-0.519-1.432-1.474-1.432c-0.545,0-0.736,0.137-0.736,0.301c0,0.285,0.396,0.189,0.396,0.818
		c0,0.449-0.273,0.873-0.955,0.873c-0.587,0-0.929-0.492-0.929-1.023c0-0.982,1.065-1.502,2.389-1.502
		c2.359,0,3.192,0.984,3.192,2.852V43.397z"/>
	<path fill="#C8152F" d="M155.382,38.801c-0.859,0-1.297,0.873-1.297,2.7c0,1.666,0.438,2.744,1.297,2.744
		c0.737,0,1.119-0.779,1.119-2.512C156.501,39.318,156.091,38.801,155.382,38.801 M151.194,34.775
		c1.487-0.055,2.538-0.271,2.769-0.271c0.069,0,0.123,0.039,0.123,0.148v3.93c0,0.328,0.015,0.396,0.096,0.396
		c0.15,0,0.438-1.01,1.787-1.01c1.692,0,2.634,1.637,2.634,3.356c0,1.883-1.2,3.451-3.124,3.451c-1.201,0-1.788-1.104-1.979-1.104
		c-0.15,0-0.709,0.898-0.832,1.104h-0.518c0.054-1.037,0.054-2.32,0.054-3.89v-4.652c0-0.736-0.245-0.928-0.888-0.928h-0.122V34.775
		z"/>
	<path fill="#C8152F" d="M159.031,44.04c0.654,0,1.16,0,1.16-0.832v-3.753c0-0.668-0.369-0.75-1.119-0.75v-0.533
		c0.982-0.027,2.482-0.205,2.633-0.205c0.096,0,0.123,0.07,0.123,0.191v1.119c0,0.055,0,0.15,0.068,0.15
		c0.205,0,0.627-1.461,1.719-1.461c0.695,0,1.064,0.479,1.064,1.174c0,0.561-0.3,1.064-0.928,1.064c-0.928,0-0.778-1.01-0.969-1.01
		c-0.205,0-0.709,0.588-0.709,1.925v2.088c0,0.832,0.477,0.832,1.363,0.832v0.531h-4.406V44.04z"/>
	<path fill="#C8152F" d="M167.866,43.944c0.764,0,1.282-0.682,1.282-2.061c0-0.531,0-0.613-0.068-0.613
		c-0.518,0-2.033,0.273-2.033,1.541C167.046,43.548,167.306,43.944,167.866,43.944 M171.031,43.397c0,0.287,0.123,0.396,0.328,0.396
		c0.122,0,0.204-0.041,0.26-0.041c0.053,0,0.095,0.055,0.095,0.137c0,0.643-0.642,0.887-1.16,0.887c-0.94,0-1.228-0.723-1.364-0.955
		c-0.26,0.205-1.105,0.955-2.252,0.955c-1.131,0-1.773-0.695-1.773-1.596c0-1.91,2.565-2.28,3.984-2.349v-0.9
		c0-1.021-0.519-1.432-1.474-1.432c-0.546,0-0.737,0.137-0.737,0.301c0,0.285,0.396,0.189,0.396,0.818
		c0,0.449-0.272,0.873-0.955,0.873c-0.586,0-0.928-0.492-0.928-1.023c0-0.982,1.064-1.502,2.388-1.502
		c2.36,0,3.192,0.984,3.192,2.852V43.397z"/>
	<path fill="#C8152F" d="M85.341,53.636h1.05c1.352,0,3.616-0.027,3.616-1.951c0-1.131-0.765-1.473-2.47-1.473
		c-1.323,0-1.433,0.121-1.582,0.75L85.341,53.636z M84.591,57.183c-0.042,0.191-0.068,0.383-0.068,0.506
		c0,0.422,0.108,0.627,1.378,0.627c2.66,0,3.547-0.695,3.547-2.182c0-1.816-1.732-1.885-3.547-1.885h-0.682L84.591,57.183z
		 M81.862,58.315h0.355c0.818,0,0.955-0.244,1.077-0.846l1.31-6.072c0.068-0.285,0.109-0.49,0.109-0.695
		c0-0.383-0.3-0.49-1.051-0.49h-0.273l0.137-0.615h4.693c1.707,0,3.07,0.424,3.07,1.965c0,2.02-1.938,2.252-2.633,2.416v0.027
		c0.682,0.109,2.224,0.465,2.224,1.99c0,1.461-1.118,2.934-4.093,2.934h-5.062L81.862,58.315z"/>
	<path fill="#C8152F" d="M94.475,58.479c1.432,0,2.195-3.027,2.195-4.135c0-0.572-0.109-1.404-1.023-1.404
		c-1.404,0-2.237,2.947-2.237,4.092C93.41,57.729,93.656,58.479,94.475,58.479 M98.95,57.21c-0.328,0.736-1.051,1.924-1.979,1.924
		c-0.777,0-0.846-0.736-0.873-1.188l-0.027-0.027c-0.232,0.262-0.969,1.215-2.006,1.215c-1.242,0-1.773-1.131-1.773-2.332
		c0-1.76,1.2-4.475,3.246-4.475c1.051,0,1.365,0.777,1.475,1.062l0.026-0.027l0.273-0.832h1.022
		c-0.49,1.596-1.296,4.652-1.296,5.389c0,0.273,0.082,0.438,0.301,0.438c0.45,0,1.05-1.092,1.187-1.432L98.95,57.21z"/>
	<path fill="#C8152F" d="M100.61,56.868c0.367-1.268,0.709-2.768,0.709-3.355c0-0.299-0.123-0.477-0.3-0.477
		c-0.56,0-1.063,1.322-1.228,1.65l-0.41-0.232c0.328-0.764,0.914-2.127,1.91-2.127c0.573,0,0.873,0.463,0.873,1.105
		c0,0.408-0.068,0.693-0.096,0.816l0.027,0.029c0.328-0.574,1.078-1.951,1.992-1.951c0.6,0,0.914,0.436,0.914,0.967
		c0,0.67-0.341,0.928-0.75,0.928c-0.328,0-0.6-0.189-0.6-0.49c0-0.232,0.068-0.246,0.068-0.395c0-0.082-0.068-0.139-0.178-0.139
		c-0.396,0-1.516,1.693-2.497,5.73h-1.037L100.61,56.868z"/>
	<path fill="#C8152F" d="M110.687,57.688c-0.643,0.791-1.583,1.445-2.633,1.445c-2.089,0-2.757-1.514-2.757-2.729
		c0-2.088,1.501-4.08,3.697-4.08c0.928,0,2.006,0.451,2.006,1.488c0,0.49-0.341,0.982-0.942,0.982c-0.408,0-0.709-0.26-0.709-0.643
		c0-0.627,0.506-0.639,0.506-0.912c0-0.191-0.355-0.383-0.888-0.383c-1.31,0-2.387,1.568-2.387,3.615
		c0,1.064,0.449,2.006,1.609,2.006c0.847,0,1.624-0.545,2.101-1.215L110.687,57.688z"/>
	<path fill="#C8152F" d="M112.997,55.97l0.026,0.027c1.324-0.205,3.221-0.941,3.221-2.266c0-0.572-0.369-0.873-0.873-0.873
		C113.896,52.858,113.078,54.919,112.997,55.97 M117.144,57.647c-0.588,0.531-1.515,1.486-3.098,1.486
		c-1.582,0-2.333-1.037-2.333-2.441c0-2.102,1.665-4.367,3.89-4.367c0.873,0,1.842,0.328,1.842,1.406c0,1.473-1.625,2.17-4.504,2.77
		c-0.014,0.096-0.027,0.246-0.027,0.367c0,0.957,0.465,1.611,1.475,1.611c0.818,0,1.664-0.504,2.428-1.242L117.144,57.647z"/>
	<path fill="#C8152F" d="M118.948,49.271c0.996-0.014,1.801-0.096,2.442-0.191l0.108,0.15l-1.882,7.572
		c-0.109,0.449-0.205,0.723-0.205,1.01c0,0.369,0.15,0.545,0.368,0.545c0.587,0,1.228-1.229,1.46-1.705l0.45,0.205
		c-0.354,0.818-1.146,2.209-2.169,2.209c-0.818,0-1.146-0.559-1.146-1.199c0-0.465,0.164-1.092,0.383-1.967l0.969-3.941
		c0.164-0.682,0.3-1.297,0.3-1.637c0-0.438-0.231-0.52-0.888-0.52h-0.312L118.948,49.271z"/>
	<path fill="#C8152F" d="M125.154,58.603c1.855,0,2.455-2.797,2.455-3.875s-0.408-1.869-1.555-1.869
		c-1.664,0-2.346,2.605-2.346,3.971C123.708,57.757,124.089,58.603,125.154,58.603 M126.15,52.325c1.65,0,2.66,1.201,2.66,2.811
		c0,1.967-1.445,3.998-3.684,3.998c-1.773,0-2.619-1.213-2.619-2.66C122.507,54.249,123.994,52.325,126.15,52.325"/>
	<path fill="#C8152F" d="M137.308,56.993c-0.479,0.887-1.146,2.072-2.252,2.072c-0.736,0-1.051-0.572-1.051-1.309
		c0-0.641,0.273-1.297,0.683-2.32c0.354-0.873,0.532-1.24,0.532-1.719c0-0.463-0.3-0.682-0.628-0.682
		c-1.187,0-2.032,1.434-2.633,3.615l-0.614,2.277h-1.092l0.602-2.059c0.367-1.27,0.709-2.77,0.709-3.357
		c0-0.299-0.123-0.477-0.301-0.477c-0.559,0-1.064,1.322-1.228,1.65l-0.409-0.232c0.328-0.764,0.914-2.127,1.91-2.127
		c0.573,0,0.873,0.463,0.873,1.104c0,0.41-0.068,0.695-0.096,0.818l0.027,0.029c0.45-0.738,1.296-1.951,2.47-1.951
		c0.887,0,1.446,0.586,1.446,1.486c0,0.682-0.301,1.432-0.547,2.047c-0.449,1.133-0.668,1.637-0.668,2.047
		c0,0.23,0.123,0.449,0.396,0.449c0.559,0,1.159-1.158,1.391-1.609L137.308,56.993z"/>
	<path fill="#C8152F" d="M140.309,58.479c1.433,0,2.196-3.027,2.196-4.135c0-0.572-0.108-1.404-1.023-1.404
		c-1.405,0-2.237,2.947-2.237,4.092C139.245,57.729,139.491,58.479,140.309,58.479 M144.785,57.21
		c-0.328,0.736-1.051,1.924-1.979,1.924c-0.777,0-0.846-0.736-0.873-1.188l-0.027-0.027c-0.232,0.262-0.969,1.215-2.006,1.215
		c-1.242,0-1.773-1.131-1.773-2.332c0-1.76,1.201-4.475,3.246-4.475c1.052,0,1.365,0.777,1.475,1.062l0.027-0.027l0.272-0.832h1.023
		c-0.491,1.596-1.296,4.652-1.296,5.389c0,0.273,0.082,0.438,0.299,0.438c0.451,0,1.052-1.092,1.188-1.432L144.785,57.21z"/>
</g>
</svg>
